<?xml version="1.0" encoding="UTF-8" standalone="no"?>
<!-- Generator: Adobe Illustrator 19.2.0, SVG Export Plug-In . SVG Version: 6.00 Build 0)  -->

<svg
   version="1.1"
   x="0px"
   y="0px"
   viewBox="0 0 512 512"
   enable-background="new 0 0 512 512"
   xml:space="preserve"
   id="svg38"
   sodipodi:docname="ILAsm.Managed.svg"
   inkscape:version="1.2.1 (9c6d41e410, 2022-07-14)"
   inkscape:export-filename="ILAsm.Managed.100.png"
   inkscape:export-xdpi="18.75"
   inkscape:export-ydpi="18.75"
   xmlns:inkscape="http://www.inkscape.org/namespaces/inkscape"
   xmlns:sodipodi="http://sodipodi.sourceforge.net/DTD/sodipodi-0.dtd"
   xmlns="http://www.w3.org/2000/svg"
   xmlns:svg="http://www.w3.org/2000/svg"><defs
   id="defs42" /><sodipodi:namedview
   id="namedview40"
   pagecolor="#ffffff"
   bordercolor="#000000"
   borderopacity="0.25"
   inkscape:showpageshadow="2"
   inkscape:pageopacity="0.0"
   inkscape:pagecheckerboard="0"
   inkscape:deskcolor="#d1d1d1"
   showgrid="false"
   inkscape:zoom="2.0058594"
   inkscape:cx="258.24343"
   inkscape:cy="259.98832"
   inkscape:window-width="1998"
   inkscape:window-height="1230"
   inkscape:window-x="5239"
   inkscape:window-y="1160"
   inkscape:window-maximized="0"
   inkscape:current-layer="svg38" />
<g
   id="Layer_2"
   style="fill:#a05a2c">
	<path
   fill="#ADB8BC"
   d="M486.394,105.201h-40.943c-2.397,0-4.693,0.965-6.37,2.676l-22.641,23.101   c-1.678,1.712-3.974,2.676-6.37,2.676h-36.721c-2.397,0-4.693-0.965-6.37-2.676l-22.641-23.101   c-1.678-1.712-3.974-2.676-6.37-2.676H25.606c-12.679,0-22.957,10.278-22.957,22.957v279.086c0,12.679,10.278,22.957,22.957,22.957   h460.789c12.679,0,22.957-10.278,22.957-22.957V128.158C509.351,115.48,499.073,105.201,486.394,105.201z"
   id="path23"
   style="fill:#a05a2c" />
</g>
<g
   id="Layer_3"
   style="fill:#d38d5f">
	<path
   fill="#597B91"
   d="M396.993,430.481H115.007v-42.09c0-7.2,5.837-13.037,13.037-13.037h255.912   c7.2,0,13.037,5.837,13.037,13.037V430.481z"
   id="path26"
   style="fill:#d38d5f" />
</g>
<g
   id="Layer_4">
	<path
   fill="#132028"
   d="M366,196.011L150.711,173.52c-5.75-1.212-11.616-1.86-17.726-1.86c-47.487,0-85.937,38.496-85.937,85.983   s38.519,85.983,86.006,85.983c47.487,0,85.994-38.496,85.994-85.983c0-26.86-12.5-50.837-31.793-66.605L366,209.851V196.011z"
   id="path29" />
</g>
<g
   id="Layer_5">
	<circle
   fill="#464A4C"
   cx="366.367"
   cy="257.643"
   r="61.632"
   id="circle32" />
</g>
<g
   id="Layer_6">
	<path
   fill="#8F9799"
   d="M160.495,257.643c0,15.143-12.276,27.419-27.419,27.419c-15.143,0-27.419-12.276-27.419-27.419   c0-15.143,12.276-27.419,27.419-27.419C148.219,230.224,160.495,242.5,160.495,257.643z M366.367,230.224   c-15.143,0-27.419,12.276-27.419,27.419c0,15.143,12.276,27.419,27.419,27.419s27.419-12.276,27.419-27.419   C393.785,242.5,381.51,230.224,366.367,230.224z"
   id="path35" />
</g>
</svg>
